<svg xmlns="http://www.w3.org/2000/svg" xmlns:xlink="http://www.w3.org/1999/xlink" xmlns:inkscape="http://www.inkscape.org/namespaces/inkscape" version="1.1" width="96" height="96" viewBox="0 0 96 96">
<defs>
<clipPath id="clip_1">
<path transform="matrix(1,0,0,-1,0,96)" d="M0 0H96V96H0Z"/>
</clipPath>
<clipPath id="clip_2">
<path transform="matrix(1,0,0,-1,0,96)" d="M0 95.449H95.413V.06H0Z"/>
</clipPath>
<clipPath id="clip_3">
<path transform="matrix(1,0,0,-1,0,96)" d="M0 0H96V96H0Z"/>
</clipPath>
<clipPath id="clip_4">
<path transform="matrix(1,0,0,-1,0,96)" d="M0 0H96V96H0Z"/>
</clipPath>
</defs>
<g clip-path="url(#clip_1)">
<path transform="matrix(1,0,0,-1,0,96)" d="M27.422 49.131C27.356 48.238 26.591 47.611 25.731 47.715 24.956 47.776 24.342 48.481 24.404 49.346 24.437 49.452 24.465 51.222 25.308 54.061 26.151 56.867 28 60.78 31.662 64.141 33.479 65.812 35.723 67.322 38.324 68.388 40.916 69.461 43.858 70.084 46.896 70.075 49.926 70.075 53.063 69.445 55.949 68.147 58.844 66.86 61.482 64.917 63.586 62.519 65.689 60.121 67.255 57.272 68.14 54.282 69.031 51.291 69.24 48.176 68.867 45.252 68.143 39.354 64.959 34.459 61.408 31.488 57.836 28.449 54.023 27.199 51.398 26.727 48.738 26.261 47.188 26.403 47.191 26.376 47.186 26.403 48.743 26.309 51.374 26.855 53.971 27.4 57.695 28.767 61.094 31.846 64.482 34.855 67.4 39.705 67.914 45.362 68.187 48.165 67.891 51.119 66.967 53.911 66.043 56.707 64.49 59.331 62.463 61.504 60.432 63.677 57.936 65.396 55.244 66.498 52.555 67.606 49.678 68.09 46.924 68.005 41.367 67.874 36.508 65.36 33.413 62.288 30.258 59.201 28.754 55.719 28.092 53.257 27.43 50.759 27.451 49.223 27.422 49.131" fill="#ddd06e"/>
<path transform="matrix(1,0,0,-1,0,96)" d="M42.956 42.252C43.692 41.737 44.195 41.568 44.218 41.546 44.637 41.339 45.026 40.823 45.026 40.208 45.026 39.376 44.35 38.702 43.52 38.702 43.303 38.702 42.994 38.777 42.911 38.813 42.802 38.867 42.171 39.148 41.182 39.961 40.205 40.76 38.961 42.146 38.248 44.136 37.511 46.097 37.4 48.692 38.417 51.053 39.375 53.418 41.487 55.432 44.002 56.249 46.511 57.106 49.3 56.731 51.349 55.508 53.438 54.307 54.752 52.362 55.289 50.597 55.848 48.814 55.717 47.234 55.48 46.207 55.242 45.173 54.95 44.637 54.967 44.633 54.95 44.635 55.2 45.195 55.356 46.231 55.508 47.255 55.502 48.799 54.84 50.439 54.205 52.065 52.84 53.744 50.902 54.662 48.985 55.608 46.559 55.711 44.535 54.833 42.489 53.979 40.952 52.221 40.349 50.315 39.707 48.411 39.963 46.484 40.618 45.084 41.265 43.662 42.229 42.755 42.956 42.252" fill="#258ab9"/>
<path transform="matrix(1,0,0,-1,0,96)" d="M40.026 73.071C42.803 73.82 45.939 74.173 49.205 73.878 52.465 73.592 55.848 72.656 58.988 71.008 62.128 69.374 65.035 67.031 67.332 64.128 69.634 61.233 71.322 57.795 72.209 54.171 73.1 50.549 73.186 46.744 72.49 43.16 71.797 39.574 70.33 36.225 68.361 33.389 66.395 30.544 63.914 28.23 61.27 26.527 58.621 24.815 55.812 23.718 53.151 23.105 47.786 21.88 43.136 22.639 40.143 23.573 37.117 24.528 35.579 25.52 35.57 25.485 35.574 25.52 37.143 24.567 40.179 23.695 43.182 22.844 47.809 22.221 53.037 23.566 55.636 24.235 58.35 25.381 60.879 27.109 63.408 28.834 65.746 31.138 67.566 33.923 69.391 36.704 70.711 39.948 71.277 43.379 71.851 46.805 71.672 50.4 70.741 53.791 69.818 57.183 68.15 60.357 65.937 62.993 63.732 65.641 60.987 67.73 58.05 69.163 55.115 70.603 52.003 71.378 49.028 71.559 46.048 71.751 43.212 71.354 40.723 70.613 35.701 69.12 32.195 66.294 30.133 64.069 28.056 61.809 27.227 60.182 27.15 60.104 26.806 59.554 26.319 59.3 25.801 59.3 24.969 59.3 24.291 59.974 24.291 60.81 24.291 61.148 24.399 61.414 24.572 61.69 24.661 61.781 25.642 63.595 28.042 66.074 30.419 68.514 34.434 71.566 40.026 73.071" fill="#63c0c9"/>
<path transform="matrix(1,0,0,-1,0,96)" d="M32.392 44.218C32.424 44.073 32.471 43.87 32.471 43.734 32.478 42.9 31.797 42.222 30.959 42.222 30.284 42.222 29.655 42.642 29.445 43.522 29.447 43.608 29.05 44.965 29.024 47.328 29.005 49.663 29.491 53.078 31.488 56.494 33.423 59.893 37.01 63.18 41.66 64.578 43.961 65.289 46.486 65.545 48.973 65.242 51.465 64.942 53.916 64.089 56.064 62.765 58.219 61.446 60.062 59.66 61.429 57.609 62.799 55.559 63.682 53.257 64.078 50.972 64.905 46.356 63.647 41.934 61.668 38.882 59.685 35.77 57.118 33.95 55.262 32.992 53.373 32.025 52.18 31.774 52.191 31.756 52.18 31.774 53.365 32.073 55.195 33.104 57.006 34.127 59.459 36.03 61.264 39.129 63.074 42.173 64.091 46.467 63.139 50.787 62.677 52.93 61.762 55.054 60.418 56.905 59.076 58.755 57.309 60.332 55.299 61.459 51.269 63.767 46.314 64.072 42.305 62.61 38.242 61.212 35.266 58.229 33.716 55.248 32.123 52.245 31.832 49.348 31.921 47.39 32.021 45.41 32.37 44.338 32.392 44.218" fill="#d2c021"/>
<path transform="matrix(1,0,0,-1,0,96)" d="M37.702 38.038C37.227 38.038 36.793 38.266 36.509 38.626 36.293 38.887 35.656 39.653 34.956 40.978 34.116 42.568 33.25 45.071 33.407 48.097 33.527 51.091 34.82 54.589 37.485 57.161 40.084 59.773 44.029 61.287 47.867 60.967 49.775 60.821 51.642 60.259 53.275 59.349 54.909 58.448 56.296 57.204 57.358 55.804 59.508 52.993 60.192 49.594 59.916 46.875 59.662 44.11 58.58 42.01 57.667 40.735 56.863 39.617 56.225 39.038 56.078 38.895 56.158 38.987 56.771 39.581 57.558 40.807 58.395 42.115 59.34 44.235 59.444 46.902 59.574 49.541 58.738 52.714 56.609 55.209 54.533 57.726 51.205 59.405 47.79 59.457 44.37 59.554 41.052 58.049 38.968 55.717 36.825 53.416 35.932 50.473 35.958 48.027 35.96 45.553 36.767 43.598 37.491 42.376 38.229 41.146 38.848 40.56 38.873 40.513 39.061 40.299 39.215 39.933 39.215 39.552 39.215 38.717 38.539 38.038 37.702 38.038" fill="#29a3be"/>
<path transform="matrix(1,0,0,-1,0,96)" d="M75.408 74.38C78.291 71.276 80.914 67.434 82.776 62.975 84.646 58.522 85.752 53.462 85.77 48.223 85.803 42.989 84.748 37.574 82.535 32.562 80.342 27.545 77.01 22.959 72.867 19.286 68.735 15.607 63.807 12.86 58.617 11.287 53.427 9.705 48.006 9.306 42.908 9.925 37.799 10.536 33.025 12.187 28.938 14.49 24.841 16.787 21.436 19.722 18.774 22.81 13.409 29.032 11.162 35.705 10.308 40.318 9.455 44.986 9.69 47.719 9.641 47.713 9.69 47.721 9.503 44.979 10.435 40.343 11.367 35.761 13.724 29.171 19.13 23.123 21.812 20.117 25.214 17.289 29.278 15.106 33.329 12.916 38.027 11.386 43.012 10.877 47.994 10.359 53.259 10.843 58.25 12.464 63.242 14.07 67.947 16.805 71.854 20.411 75.771 24.007 78.879 28.456 80.889 33.27 82.91 38.081 83.814 43.241 83.7 48.199 83.597 53.161 82.473 57.905 80.641 62.054 78.818 66.216 76.295 69.77 73.551 72.624 68.018 78.376 61.725 81.154 57.26 82.388 52.84 83.594 50.072 83.654 49.796 83.654 49.683 83.654 49.404 83.687 49.219 83.764 49.209 83.767 49.217 83.764 49.207 83.768 48.666 83.997 48.284 84.535 48.284 85.165 48.284 86.044 49.039 86.768 49.99 86.672 50.17 86.617 53.199 86.584 58.066 85.169 60.484 84.444 63.346 83.336 66.357 81.592 69.361 79.856 72.52 77.489 75.408 74.38" fill="#29a3be"/>
<path transform="matrix(1,0,0,-1,0,96)" d="M88.643 59.419C89.884 54.889 90.489 49.765 90.035 44.418 89.594 39.082 88.078 33.532 85.405 28.365 82.75 23.202 78.928 18.408 74.176 14.613 69.437 10.803 63.801 8 57.836 6.513 51.873 5.012 45.602 4.838 39.683 5.958 33.759 7.07 28.208 9.462 23.503 12.694 18.783 15.923 14.925 20.009 12.082 24.381 9.224 28.754 7.377 33.4 6.34 37.817 5.3 42.24 5.082 46.434 5.313 50.102 5.555 53.778 6.239 56.927 7.004 59.446 8.567 64.491 10.211 67.062 10.156 67.084 10.211 67.065 8.609 64.462 7.13 59.409 6.409 56.883 5.773 53.737 5.593 50.086 5.417 46.44 5.7 42.284 6.804 37.928 7.894 33.578 9.788 29.024 12.668 24.772 15.532 20.516 19.377 16.573 24.039 13.485 28.689 10.4 34.131 8.158 39.9 7.17 45.664 6.171 51.729 6.441 57.455 7.975 63.184 9.502 68.563 12.286 73.043 16.005 77.535 19.709 81.106 24.341 83.559 29.301 86.03 34.261 87.378 39.536 87.717 44.595 88.068 49.654 87.418 54.478 86.186 58.723 84.945 62.979 83.115 66.655 81.136 69.669 79.156 72.688 77.021 75.045 75.125 76.839 71.287 80.409 68.514 81.837 68.375 81.976 68.142 82.12 67.461 82.482 67.461 83.386 67.461 84.217 68.136 84.893 68.969 84.893 69.355 84.893 69.623 84.762 69.965 84.552 70.108 84.404 73.073 82.821 77.13 78.929 79.135 76.975 81.379 74.418 83.443 71.161 85.508 67.908 87.396 63.962 88.643 59.419" fill="#258ab9"/>
</g>
<g clip-path="url(#clip_2)">
<g clip-path="url(#clip_3)">
<path transform="matrix(1,0,0,-1,0,96)" d="M58.477 75.943C61.983 74.506 65.398 72.303 68.311 69.399 71.225 66.504 73.634 62.911 75.18 58.902 76.731 54.902 77.416 50.513 77.146 46.189 76.885 41.865 75.666 37.618 73.656 33.881 71.65 30.141 68.866 26.933 65.702 24.467 62.537 21.988 58.982 20.273 55.452 19.295 51.918 18.311 48.423 18.056 45.251 18.304 38.859 18.791 33.95 21.244 30.945 23.318 27.909 25.43 26.538 27.068 26.519 27.038 26.538 27.069 27.946 25.464 31.017 23.429 34.057 21.427 38.986 19.113 45.281 18.776 48.407 18.604 51.83 18.928 55.26 19.971 58.681 21 62.094 22.749 65.104 25.21 68.115 27.674 70.726 30.824 72.565 34.454 74.411 38.075 75.482 42.154 75.636 46.266 75.796 50.375 75.055 54.512 73.511 58.236 71.975 61.971 69.644 65.279 66.867 67.915 64.09 70.562 60.882 72.53 57.613 73.785 54.348 75.05 51.029 75.608 47.979 75.66 41.83 75.758 36.895 73.83 33.796 72.064 30.668 70.265 29.165 68.733 29.044 68.67 28.872 68.521 28.54 68.198 27.941 68.198 27.107 68.198 26.431 68.873 26.431 69.706 26.431 70.239 26.687 70.632 27.06 70.958 27.193 71.024 28.899 72.688 32.399 74.603 35.866 76.482 41.347 78.472 48.051 78.209 51.379 78.081 54.967 77.396 58.477 75.943" fill="#258ab9"/>
<path transform="matrix(1,0,0,-1,0,96)" d="M95.384 46.354C95.201 41.097 94.14 35.418 91.863 29.86 89.608 24.299 86.144 18.877 81.558 14.248 76.992 9.611 71.312 5.762 64.959 3.288 58.623 .797 51.654-.319 44.776 .079 37.896 .466 31.129 2.379 25.17 5.554 19.199 8.725 14.06 13.139 10.103 18.172 6.131 23.206 3.363 28.873 1.779 34.506 .181 40.143-.242 45.741 .125 50.814 .49 55.902 1.656 60.47 3.133 64.32 4.62 68.177 6.408 71.322 8.069 73.77 11.435 78.651 14.054 80.864 14.005 80.898 14.054 80.864 11.465 78.611 8.179 73.697 6.554 71.235 4.82 68.072 3.396 64.22 1.981 60.375 .889 55.822 .596 50.784 .302 45.753 .802 40.232 2.455 34.699 4.093 29.173 6.889 23.649 10.851 18.772 14.799 13.892 19.88 9.649 25.74 6.644 31.589 3.632 38.186 1.874 44.852 1.589 51.518 1.299 58.23 2.474 64.297 4.955 70.371 7.423 75.766 11.19 80.078 15.692 84.404 20.188 87.637 25.403 89.707 30.72 91.794 36.04 92.727 41.445 92.83 46.427 92.937 51.419 92.21 55.991 91.098 59.898 89.992 63.815 88.49 67.066 87.057 69.638 84.134 74.772 81.631 77.248 81.529 77.443 81.525 77.448 81.523 77.455 81.516 77.464 81.307 77.721 81.18 78.056 81.18 78.415 81.18 79.255 81.859 79.932 82.695 79.932 83.232 79.932 83.701 79.654 83.973 79.232 84.592 78.504 86.939 75.852 89.594 71.036 91.084 68.28 92.63 64.798 93.747 60.63 94.866 56.473 95.57 51.622 95.384 46.354" fill="#2e6cae"/>
</g>
</g>
<g clip-path="url(#clip_4)">
<path transform="matrix(1,0,0,-1,0,96)" d="M49.209 83.768C49.211 83.767 49.215 83.764 49.217 83.763 49.099 83.82 49.101 83.818 49.209 83.768" fill="#9bc846"/>
<path transform="matrix(1,0,0,-1,0,96)" d="M73.469 70.233C76.252 66.938 78.539 62.913 79.946 58.45 81.366 53.995 81.912 49.094 81.359 44.234 80.82 39.373 79.199 34.576 76.652 30.345 74.107 26.112 70.637 22.458 66.635 19.744 62.635 17.015 58.125 15.233 53.619 14.408 49.105 13.57 44.601 13.708 40.516 14.583 36.415 15.449 32.743 17.041 29.656 18.965 23.442 22.833 19.76 27.912 17.807 31.605 15.847 35.35 15.321 37.735 15.286 37.715 15.321 37.735 15.895 35.362 17.921 31.668 19.935 28.025 23.7 23.063 29.904 19.366 32.98 17.532 36.627 16.036 40.654 15.272 44.673 14.495 49.068 14.45 53.437 15.349 57.801 16.236 62.129 18.05 65.934 20.751 69.734 23.447 72.992 27.02 75.346 31.113 77.706 35.206 79.151 39.803 79.573 44.415 80.003 49.032 79.397 53.638 77.981 57.804 76.574 61.979 74.357 65.696 71.706 68.72 69.051 71.756 65.975 74.094 62.894 75.778 56.684 79.167 50.626 79.845 46.522 79.7 42.483 79.545 40.193 78.912 39.882 78.783 38.892 78.385 37.809 79.112 37.809 80.181 37.809 80.888 38.276 81.519 39.165 81.729 39.42 81.769 41.927 82.506 46.46 82.596 50.941 82.668 57.516 81.795 64.141 78.006 67.43 76.125 70.689 73.543 73.469 70.233" fill="#22afc4"/>
</g>
</svg>
